<svg width="112" height="48" viewBox="0 0 112 48" fill="none" xmlns="http://www.w3.org/2000/svg">
<path fill-rule="evenodd" clip-rule="evenodd" d="M105.795 21.9621C106.907 22.425 108.811 22.1944 110.202 21.5451L111.6 24.7003C109.698 25.8671 107.702 26.4232 105.985 26.2841V26.4232C105.985 32.1671 102.683 35.9665 98.2278 35.9665C93.8027 35.9665 90.647 33.5116 89.9647 28.5402C89.2742 28.7595 88.5544 28.8734 87.8298 28.8781C87.1334 33.0488 84.302 35.9665 80.1714 35.9665C75.9808 35.9665 72.8339 33.5028 71.5592 28.0475L64.8599 35.8662L60.7769 34.6607L61.0537 25.348L53.6738 35.9067L49.6366 34.703L49.8676 24.9731L42.3485 35.9067L38.1173 34.6555L39.2262 16.4962L44.1467 17.3761L43.7289 26.6889L51.62 15.8469L55.3786 17.5609L54.9608 26.5956L62.9912 15.6621L66.7516 17.5609L66.1011 27.5688L70.9369 22.5393V21.9164C70.9369 10.4725 76.1818 0 83.3289 0C86.7649 0 88.9457 2.03957 88.9457 5.69993C88.9457 10.2859 85.9293 16.3097 76.4603 23.3981C76.8305 28.6335 78.5036 30.9969 80.2666 30.9969C81.5659 30.9969 82.726 29.6999 83.0045 26.9194C81.751 25.8073 81.0617 24.5209 80.9224 22.3898L84.5824 18.9036C85.4638 23.1201 86.8566 24.6493 88.8523 24.6493C89.2415 24.6519 89.627 24.5734 89.9841 24.4188C90.5553 20.7285 92.655 17.2846 95.4916 15.4773L98.4605 18.6273C96.2797 20.5261 95.2114 23.3981 95.2114 26.1786C95.2114 28.959 96.2339 30.9969 98.3212 30.9969C100.179 30.9969 101.292 28.7267 101.292 25.0664C101.297 24.8034 101.282 24.5404 101.246 24.2798C99.8074 23.0286 98.8783 21.4535 98.9259 19.831C98.9747 19.1973 99.2552 18.6035 99.714 18.1627L101.942 15.9384C104.171 17.6066 105.237 18.9969 105.795 21.9621ZM83.9318 6.62558C83.9318 5.37613 83.5122 4.77252 82.6307 4.77252C80.4041 4.77252 77.2466 11.6304 76.5502 18.5798C82.5391 13.2987 83.9318 9.12799 83.9318 6.62558Z" fill="#2F2F2F"/>
<path d="M30.7468 18.4232C30.8438 18.2226 32.3053 18.6202 32.4816 18.6695C35.0696 19.3805 36.6105 21.5204 37.217 24.0562C38.4986 29.4007 35.4116 35.8204 29.3065 35.7095C26.5174 35.6585 24.014 34.3123 22.2863 32.329C20.9885 33.6824 19.3731 34.6913 17.5862 35.2643C14.7196 36.1759 11.578 36.3008 8.72546 35.296C5.77248 34.2647 3.36603 32.0615 1.87103 29.3374C0.453006 26.7185 -0.181 23.7479 0.0445663 20.7795C0.397162 16.0932 3.2567 11.8029 7.47903 9.58201C9.76208 8.38007 12.5599 8.14428 14.8976 8.23226C17.6267 8.33433 19.7758 9.1051 21.47 10.5851L21.5723 10.6766L21.5106 10.798C20.8736 12.0404 20.2342 13.2811 19.5924 14.52L19.5096 14.6819L19.3509 14.5939C18.0743 13.8729 16.6915 13.358 15.2538 13.0682C11.1531 12.2199 6.92019 15.1817 6.00873 19.5354C5.67219 21.1518 5.70352 22.8231 6.10041 24.4258C6.15682 24.6476 6.2185 24.8693 6.28902 25.0857C7.32917 28.3185 10.0971 30.7311 13.586 30.7311C15.8761 30.7311 18.5453 29.6576 20.0173 27.7923C20.0107 27.7567 20.0039 27.7214 19.9971 27.6863C19.9857 27.6275 19.9744 27.5691 19.9644 27.5107C19.2205 23.1711 21.5458 17.4588 24.6857 15.384L27.986 18.0624C26.3041 20.0774 24.7439 23.5001 25.2252 26.3334C25.6747 28.9819 27.0657 30.6273 29.3911 30.6273C30.0555 30.6144 30.6992 30.3937 31.2312 29.9962C31.7632 29.5987 32.1568 29.0444 32.3564 28.4117C32.702 27.1271 32.7831 25.6348 32.2207 24.4029C31.9595 23.8092 31.5187 23.312 30.9602 22.981C30.4189 22.6713 29.4598 22.351 28.8322 22.4742C28.8287 22.4749 28.8243 22.4755 28.8195 22.4761C28.8011 22.4784 28.7764 22.4816 28.7681 22.4966L30.7468 18.4232Z" fill="#2F2F2F"/>
</svg>
